<?xml version="1.0" encoding="UTF-8"?>
<svg width="14px" height="13px" viewBox="0 0 14 13" version="1.1" xmlns="http://www.w3.org/2000/svg" xmlns:xlink="http://www.w3.org/1999/xlink">
    <!-- Generator: Sketch 60 (88103) - https://sketch.com -->
    <title>订单管理</title>
    <desc>Created with Sketch.</desc>
    <g id="订单管理-客户订单-1" stroke="none" stroke-width="1" fill="none" fill-rule="evenodd">
        <g id="客户订单" transform="translate(-24.000000, -183.000000)">
            <g id="编组-45备份-2">
                <g id="Dashboard/Active-3备份-23" transform="translate(0.000000, 161.000000)">
                    <g id="Dashboard/Active-2">
                        <g id="Dashboard/Active">
                            <g id="Group-34">
                                <g id="订单管理" transform="translate(24.000000, 21.000000)">
                                    <g id="编组-6">
                                        <rect id="矩形" fill="#FFC1C1" opacity="0" x="0" y="0" width="14" height="14"></rect>
                                        <g id="编组-3" transform="translate(0.000000, 1.000000)" fill="#FFFFFF" fill-rule="nonzero">
                                            <polygon id="路径-10" points="5.41788836e-14 -7.10542736e-15 2.53749044 -7.10542736e-15 4.2672 7.47133333 10.9610667 7.47133333 12.3442667 3.234 5.00734105 3.2347256 5.00734105 2.30139226 13.6310716 2.30139226 11.6382413 8.40490702 3.52576856 8.40490702 1.79573333 0.9324 5.41788836e-14 0.933333333"></polygon>
                                            <polygon id="路径-11" points="11.2075423 9.21638269 11.2075423 10.149716 3.77696684 10.149716 3.77696684 9.21638269"></polygon>
                                            <path d="M4.66666667,10.7333333 C5.18213243,10.7333333 5.6,11.1512009 5.6,11.6666667 C5.6,12.1821324 5.18213243,12.6 4.66666667,12.6 C4.1512009,12.6 3.73333333,12.1821324 3.73333333,11.6666667 C3.73333333,11.1512009 4.1512009,10.7333333 4.66666667,10.7333333 Z" id="矩形"></path>
                                            <path d="M10.2666667,10.7333333 C10.7821324,10.7333333 11.2,11.1512009 11.2,11.6666667 C11.2,12.1821324 10.7821324,12.6 10.2666667,12.6 C9.7512009,12.6 9.33333333,12.1821324 9.33333333,11.6666667 C9.33333333,11.1512009 9.7512009,10.7333333 10.2666667,10.7333333 Z" id="矩形备份"></path>
                                        </g>
                                    </g>
                                </g>
                            </g>
                        </g>
                    </g>
                </g>
            </g>
        </g>
    </g>
</svg>