<?xml version="1.0" encoding="UTF-8"?>
<svg width="14px" height="14px" viewBox="0 0 14 14" version="1.1" xmlns="http://www.w3.org/2000/svg" xmlns:xlink="http://www.w3.org/1999/xlink">
    <!-- Generator: Sketch 60 (88103) - https://sketch.com -->
    <title>个人中心</title>
    <desc>Created with Sketch.</desc>
    <g id="订单管理-客户订单-1" stroke="none" stroke-width="1" fill="none" fill-rule="evenodd">
        <g id="客户订单" transform="translate(-24.000000, -566.000000)">
            <g id="编组-45备份-2">
                <g id="Dashboard/Active-3备份-22" transform="translate(0.000000, 545.000000)">
                    <g id="Dashboard/Active-2">
                        <g id="Dashboard/Active">
                            <g id="Group-34">
                                <g id="采购计划" transform="translate(24.000000, 21.000000)">
                                    <g id="个人中心">
                                        <g id="用户管理备份-2">
                                            <rect id="矩形" fill="#000000" fill-rule="nonzero" opacity="0" x="0" y="0" width="14" height="14"></rect>
                                            <path d="M7.103,9.07500001 C5.333,9.07500001 3.457,7.513 3.457,3.971 C3.457,1.575 4.70699999,0.221000008 7.103,0.012999998 C9.5,0.220000006 10.75,1.575 10.75,3.97 C10.75,7.512 8.875,9.074 7.104,9.074 L7.103,9.07500001 Z M7.103,1.055 C5.333,1.157 4.5,2.094 4.5,3.97 C4.5,6.782 5.854,8.03200001 7.104,8.03200001 C8.35399999,8.03200001 9.708,6.78200001 9.708,3.97 C9.708,2.2 8.875,1.262 7.104,1.05300001 L7.103,1.055 Z M12.596,13.971 L1.346,13.971 C0.92900001,13.971 0.513000004,13.554 0.513000004,13.138 L0.513000004,12.929 L0.928999996,11.679 C1.346,10.533 2.388,9.7 3.638,9.7 L10.304,9.7 C11.554,9.7 12.596,10.533 13.013,11.68 L13.429,12.93 C13.533,13.346 13.325,13.867 12.909,13.97 L12.596,13.97 L12.596,13.971 Z M1.658,12.929 L12.388,12.929 L12.075,11.992 C11.763,11.262 11.138,10.742 10.305,10.742 L3.63699999,10.742 C2.80299999,10.742 2.17799999,11.262 1.86599999,11.992 L1.657,12.929 L1.658,12.929 Z" id="形状" fill="#FFFFFF" fill-rule="nonzero"></path>
                                        </g>
                                    </g>
                                </g>
                            </g>
                        </g>
                    </g>
                </g>
            </g>
        </g>
    </g>
</svg>